<svg id="Layer_1"  xmlns="http://www.w3.org/2000/svg" viewBox="0 0 720 450">
  <defs>
    <style>
      .cls-1 {
        fill: #fff;
      }
    </style>
  </defs>
  <g>
    <path class="cls-1" d="m343.68,343.05h-18.4v-32.05h3.79v28.26h14.61v3.79Z"/>
    <path class="cls-1" d="m368.7,343.05h-3.79v-6.77h-15.86l-1.27-4.43,16.71-20.84h4.22v21.49h4.79v3.79h-4.79v6.77Zm-16.69-10.56h12.89v-16.12l-12.89,16.12Z"/>
    <path class="cls-1" d="m384.75,343.05h-4.28l15.68-28.26h-17.4v-3.79h21.69v3.81l-.09.15-15.6,28.09Z"/>
  </g>
  <path class="cls-1" d="m362.86,267.09c-3.08,0-5.58,2.5-5.58,5.58s2.5,5.58,5.58,5.58,5.58-2.5,5.58-5.58-2.5-5.58-5.58-5.58Z"/>
  <path class="cls-1" d="m433.69,190.81c-3.19,0-5.78,2.59-5.78,5.78,0,.29.04.58.09.86l-29.75,15.85c-.43-.42-.91-.8-1.44-1.11l-30.32-17.5c-.46-.26-.95-.44-1.44-.59l10.55-29.91,49.54-9.57,8.17-35.19c2.88-.33,5.13-2.74,5.13-5.71,0-3.19-2.59-5.78-5.78-5.78s-5.78,2.59-5.78,5.78c0,2.05,1.07,3.83,2.68,4.86l-7.6,32.75-49.25,9.51-11.68,33.12c-.62.16-1.23.4-1.8.73l-30.32,17.5c-.55.32-1.05.71-1.49,1.15l-35.43-21.52c.06-.33.1-.66.1-1.01,0-.03,0-.06-.01-.1,0-.03.01-.06.01-.1,0-3.19-2.59-5.78-5.78-5.78s-5.78,2.59-5.78,5.78c0,.03,0,.06,0,.1s0,.06,0,.1c0,3.19,2.59,5.78,5.78,5.78,1.39,0,2.64-.51,3.64-1.32l35.54,21.59c-.12.53-.22,1.07-.22,1.63v35.01c0,.69.11,1.35.29,1.99l-32.73,19.88c-1-.81-2.25-1.32-3.64-1.32-3.19,0-5.78,2.59-5.78,5.78s2.59,5.78,5.78,5.78,5.78-2.59,5.78-5.78c0-.41-.04-.8-.12-1.19l32.72-19.87c.4.38.84.74,1.33,1.02l15.64,9.03c3.45,1.99,7.8-.7,7.4-4.82-.11-1.1-.83-2.05-1.78-2.61l-15.71-9.12v-32.68l28.41-16.4,28.4,16.17.2,32.87-15.88,9.12c-.96.55-1.68,1.51-1.79,2.61-.41,4.12,3.95,6.83,7.41,4.83l16.11-9.3c1.94-1.12,3.14-3.19,3.14-5.44v-35.58c0-.64-.09-1.26-.25-1.86l29.61-15.78c1.03.94,2.38,1.53,3.89,1.53,3.19,0,5.78-2.59,5.78-5.78s-2.59-5.78-5.78-5.78Z"/>
</svg>
